# xmcd CD database file
#
# Track frame offsets:
#	150
#	16562
#	40825
#	56309
#
# Disc length: 1256 seconds
#
# Revision: 0
# Processed by: cddbd v1.5.2PL0 Copyright (c) Steve Scherf et al.
# Submitted via: CDex 1.70beta3
#
DISCID=1f04e604
DTITLE=SOIL&"PIMP" SESSIONS - STORM
DYEAR=2008
DGENRE=Jazz
TTITLE0=STORM
TTITLE1=COME ON BABY
TTITLE2=pro-seed
TTITLE3=道 [Live]
EXTD=YEAR: 2008
EXTT0=
EXTT1=
EXTT2=
EXTT3=
PLAYORDER=
